<svg xmlns="http://www.w3.org/2000/svg" xml:space="preserve" fill-rule="evenodd" stroke-linejoin="round" stroke-miterlimit="2" clip-rule="evenodd" viewBox="0 0 576 150">
  <path fill-rule="nonzero" d="M186.495 28.871h8.938l13.247 38.97 13.183-38.97h8.81v46.107h-5.917V47.777c0-.965 0-2.508.065-4.694.064-2.187.064-4.502.064-7.01l-13.182 38.905h-6.174l-13.247-38.905v1.415c0 1.158 0 2.83.065 5.144.064 2.315.128 4.052.128 5.145v27.2h-5.98V28.872ZM233.438 28.871h7.266l13.247 22.121 13.247-22.12h7.33l-17.426 27.522v18.584h-6.238V56.394L233.438 28.87ZM189.14 88.018c.073-1.325.294-2.32.7-2.945.772-1.105 2.245-1.657 4.38-1.657.222 0 .406.037.627.037.22 0 .478.037.736.037v2.945c-.331 0-.552-.037-.736-.037h-.405c-.995 0-1.584.258-1.768.774-.184.515-.294 1.804-.294 3.866h3.203v2.577h-3.24v16.606h-3.204V93.615h-2.65v-2.577h2.65v-3.02ZM196.829 90.964h3.056v3.314c.258-.626.884-1.436 1.878-2.357.957-.92 2.098-1.399 3.387-1.399.074 0 .147 0 .295.037.147 0 .405.037.736.074v3.424a2.888 2.888 0 0 0-.515-.074c-.184-.036-.332-.036-.553-.036-1.62 0-2.872.515-3.755 1.583a5.554 5.554 0 0 0-1.289 3.608v11.083h-3.24V90.964ZM215.165 90.522c1.363 0 2.688.332 3.977.958 1.289.662 2.246 1.472 2.945 2.503.626.958 1.068 2.1 1.29 3.388.183.883.294 2.32.294 4.27h-14.14c.074 1.952.553 3.499 1.4 4.677.847 1.178 2.21 1.767 4.013 1.767 1.694 0 3.02-.552 4.05-1.656.553-.663.958-1.4 1.216-2.246h3.166c-.073.7-.331 1.51-.81 2.356a8.337 8.337 0 0 1-1.62 2.136c-.957.957-2.172 1.62-3.645 1.951-.773.184-1.657.295-2.614.295-2.43 0-4.456-.884-6.113-2.615-1.656-1.767-2.503-4.197-2.503-7.327 0-3.093.847-5.633 2.54-7.548 1.657-1.915 3.866-2.909 6.554-2.909Zm5.155 8.543c-.11-1.4-.442-2.541-.92-3.388-.884-1.546-2.357-2.32-4.419-2.32-1.51 0-2.725.553-3.755 1.62-.995 1.068-1.547 2.43-1.584 4.088h10.678ZM233.802 90.522c1.363 0 2.688.332 3.977.958 1.289.662 2.246 1.472 2.946 2.503.626.958 1.067 2.1 1.288 3.388.184.883.295 2.32.295 4.27h-14.139c.074 1.952.552 3.499 1.4 4.677.846 1.178 2.208 1.767 4.013 1.767 1.693 0 3.019-.552 4.05-1.656.552-.663.957-1.4 1.215-2.246h3.166c-.073.7-.331 1.51-.81 2.356a8.337 8.337 0 0 1-1.62 2.136c-.957.957-2.172 1.62-3.645 1.951-.773.184-1.657.295-2.614.295-2.43 0-4.455-.884-6.112-2.615-1.657-1.767-2.504-4.197-2.504-7.327 0-3.093.847-5.633 2.54-7.548 1.657-1.915 3.867-2.909 6.554-2.909Zm5.155 8.543c-.11-1.4-.442-2.541-.92-3.388-.884-1.546-2.357-2.32-4.419-2.32-1.51 0-2.724.553-3.755 1.62-.994 1.068-1.547 2.43-1.584 4.088h10.678ZM244.523 83.82h3.24v26.401h-3.24zM258.41 108.122c2.136 0 3.609-.81 4.42-2.43.772-1.62 1.177-3.424 1.177-5.412 0-1.805-.257-3.277-.847-4.382-.92-1.767-2.503-2.651-4.713-2.651-1.988 0-3.424.736-4.308 2.246-.92 1.51-1.362 3.35-1.362 5.486 0 2.025.442 3.756 1.362 5.118.884 1.363 2.32 2.025 4.272 2.025Zm.111-17.71c2.504 0 4.603.81 6.296 2.467 1.73 1.657 2.578 4.087 2.578 7.327 0 3.093-.737 5.67-2.246 7.695-1.51 2.026-3.866 3.02-7.033 3.02-2.651 0-4.75-.884-6.333-2.688-1.546-1.804-2.32-4.198-2.32-7.217 0-3.24.81-5.818 2.467-7.732 1.62-1.915 3.83-2.872 6.591-2.872ZM276.201 90.633c1.51 0 2.835.368 3.94 1.104.626.405 1.252 1.031 1.878 1.841v-2.43H285v17.527c0 2.43-.331 4.344-1.068 5.78-1.325 2.615-3.866 3.903-7.622 3.903-2.062 0-3.792-.441-5.228-1.399-1.4-.92-2.21-2.356-2.357-4.345h3.277c.148.847.48 1.51.958 1.989.736.736 1.878 1.067 3.424 1.067 2.504 0 4.124-.846 4.897-2.614.442-1.03.663-2.872.626-5.523-.663.994-1.436 1.73-2.356 2.21-.884.478-2.1.699-3.609.699-2.062 0-3.903-.736-5.45-2.21-1.582-1.472-2.356-3.939-2.356-7.326 0-3.24.774-5.744 2.357-7.549 1.583-1.84 3.46-2.724 5.707-2.724Zm5.818 9.868c0-2.357-.48-4.124-1.473-5.303-.994-1.141-2.246-1.73-3.756-1.73-2.283 0-3.83 1.068-4.676 3.203-.442 1.142-.663 2.651-.663 4.492 0 2.173.442 3.83 1.326 4.934.883 1.142 2.062 1.73 3.534 1.73 2.357 0 3.977-1.067 4.934-3.166.516-1.178.774-2.577.774-4.16ZM295.682 108.122c2.136 0 3.608-.81 4.418-2.43.774-1.62 1.179-3.424 1.179-5.412 0-1.805-.258-3.277-.847-4.382-.92-1.767-2.504-2.651-4.713-2.651-1.989 0-3.425.736-4.308 2.246-.92 1.51-1.363 3.35-1.363 5.486 0 2.025.442 3.756 1.363 5.118.883 1.363 2.32 2.025 4.27 2.025Zm.11-17.71c2.504 0 4.603.81 6.297 2.467 1.73 1.657 2.577 4.087 2.577 7.327 0 3.093-.736 5.67-2.246 7.695-1.51 2.026-3.866 3.02-7.033 3.02-2.65 0-4.75-.884-6.333-2.688-1.546-1.804-2.32-4.198-2.32-7.217 0-3.24.81-5.818 2.468-7.732 1.62-1.915 3.829-2.872 6.59-2.872ZM307.434 106.318h3.755v3.903h-3.755zM315.05 90.964h3.203v2.725c.773-.92 1.473-1.62 2.099-2.062 1.067-.737 2.282-1.105 3.645-1.105 1.51 0 2.761.405 3.682 1.142.552.441 1.03 1.067 1.436 1.914.736-1.03 1.583-1.804 2.54-2.283.994-.515 2.062-.773 3.277-.773 2.578 0 4.345.958 5.302 2.835.48.995.737 2.357.737 4.05v12.814h-3.35V96.855c0-1.288-.332-2.172-.958-2.65-.663-.48-1.436-.737-2.357-.737-1.288 0-2.356.442-3.277 1.289-.92.846-1.399 2.282-1.399 4.27v11.194h-3.277V97.665c0-1.325-.147-2.283-.478-2.872-.48-.883-1.4-1.362-2.725-1.362-1.252 0-2.357.479-3.35 1.436-.995.957-1.51 2.651-1.51 5.155v10.2h-3.24V90.963ZM351.906 90.522c1.363 0 2.688.332 3.977.958 1.289.662 2.246 1.472 2.946 2.503.626.958 1.067 2.1 1.288 3.388.184.883.295 2.32.295 4.27h-14.139c.074 1.952.552 3.499 1.4 4.677.846 1.178 2.208 1.767 4.013 1.767 1.693 0 3.019-.552 4.05-1.656.552-.663.957-1.4 1.215-2.246h3.166c-.073.7-.331 1.51-.81 2.356a8.337 8.337 0 0 1-1.62 2.136c-.957.957-2.172 1.62-3.645 1.951-.773.184-1.657.295-2.614.295-2.43 0-4.455-.884-6.112-2.615-1.657-1.767-2.504-4.197-2.504-7.327 0-3.093.847-5.633 2.54-7.548 1.657-1.915 3.867-2.909 6.554-2.909Zm5.155 8.543c-.11-1.4-.442-2.541-.92-3.388-.884-1.546-2.357-2.32-4.419-2.32-1.51 0-2.724.553-3.755 1.62-.994 1.068-1.547 2.43-1.584 4.088h10.678ZM309.169 70.231c-3.472 3.151-7.845 4.759-13.247 4.759-6.688 0-11.896-2.122-15.69-6.43-3.794-4.245-5.723-10.161-5.723-17.62 0-8.103 2.186-14.276 6.494-18.713 3.794-3.794 8.553-5.66 14.405-5.66 7.78 0 13.44 2.509 17.04 7.653 1.994 2.83 3.087 5.723 3.216 8.617h-9.646c-.643-2.186-1.479-3.923-2.444-5.016-1.736-1.993-4.372-3.022-7.845-3.022-3.472 0-6.237 1.415-8.295 4.244-1.994 2.83-3.022 6.88-3.022 12.025 0 5.209 1.028 9.131 3.215 11.704 2.122 2.572 4.887 3.858 8.167 3.858 3.408 0 5.98-1.093 7.78-3.344.965-1.157 1.801-2.958 2.444-5.337h9.581c-.835 5.016-3.022 9.131-6.43 12.282ZM340.239 74.99c-6.623 0-11.703-1.8-15.176-5.402-4.694-4.437-7.074-10.803-7.074-19.099 0-8.488 2.38-14.854 7.074-19.098 3.473-3.601 8.553-5.402 15.176-5.402 6.56 0 11.64 1.8 15.112 5.402 4.694 4.244 7.009 10.61 7.009 19.098 0 8.296-2.315 14.662-7.01 19.099-3.472 3.601-8.552 5.402-15.111 5.402Zm9.131-12.411c2.187-2.83 3.344-6.88 3.344-12.09 0-5.208-1.157-9.195-3.408-12.025-2.25-2.83-5.273-4.244-9.067-4.244-3.858 0-6.945 1.415-9.196 4.244-2.315 2.83-3.408 6.817-3.408 12.025 0 5.21 1.093 9.26 3.408 12.09 2.251 2.83 5.338 4.244 9.196 4.244 3.794 0 6.816-1.415 9.131-4.244ZM375.403 73.704H366.4v-46.3h14.019l8.424 36.397 8.36-36.397h13.954v46.3h-9.067V42.387c0-.9.064-2.122.064-3.794v-3.73l-8.745 38.84h-9.389l-8.681-38.84v3.73c.064 1.672.064 2.894.064 3.794v31.317ZM436.557 57.048h-9.838v16.656h-9.582v-46.3h20.128c4.63 0 8.36 1.222 11.124 3.6 2.766 2.38 4.116 6.11 4.116 11.061 0 5.466-1.35 9.325-4.116 11.575-2.765 2.315-6.687 3.408-11.832 3.408Zm4.502-9.645c1.286-1.093 1.865-2.83 1.865-5.273 0-2.38-.58-4.116-1.865-5.145-1.286-1.029-3.023-1.543-5.338-1.543h-9.002v13.633h9.002c2.315 0 4.052-.515 5.338-1.672ZM479.192 64.186h-17.106l-3.15 9.518h-10.16l16.526-46.3h10.932l16.397 46.3H482.15l-2.958-9.518Zm-2.701-7.973-5.788-18.199-5.98 18.199h11.768ZM532.704 73.704h-9.646l-18.905-32.86v32.86h-9.003v-46.3h10.096L523.7 59.749V27.404h9.003v46.3ZM575.863 27.404 560.43 56.277v17.427h-9.71V56.277l-16.012-28.873h11.382l9.646 20.192 9.196-20.192h10.931Z"/>
  <path d="m100 149.986-50-28.87v-25l50 28.87 50-28.87v25l-50 28.87Zm-75-50 28.868 50h-25L0 99.986l28.868-50h25L25 99.986Zm71.133-100h25l28.867 50-28.867 50h-25l28.867-50-28.867-50ZM50-.013l50 28.87v25l-50-28.87-50 28.87v-25L50-.014Z"/>
</svg>
