<?xml version="1.0" encoding="UTF-8"?>
<!DOCTYPE svg PUBLIC "-//W3C//DTD SVG 1.1//EN" "http://www.w3.org/Graphics/SVG/1.1/DTD/svg11.dtd">
<svg xmlns="http://www.w3.org/2000/svg" version="1.1" width="142" height="24" style="shape-rendering:geometricPrecision; text-rendering:geometricPrecision; image-rendering:optimizeQuality; fill-rule:evenodd; clip-rule:evenodd" xmlns:xlink="http://www.w3.org/1999/xlink">
<g><path style="opacity:1" fill="#fefefe" d="M -0.5,-0.5 C 166.167,-0.5 332.833,-0.5 499.5,-0.5C 499.5,166.167 499.5,332.833 499.5,499.5C 332.833,499.5 166.167,499.5 -0.5,499.5C -0.5,332.833 -0.5,166.167 -0.5,-0.5 Z"/></g>
<g><path style="opacity:1" fill="#191919" d="M 206.5,241.5 C 207.833,241.5 209.167,241.5 210.5,241.5C 210.5,246.833 210.5,252.167 210.5,257.5C 209.167,257.5 207.833,257.5 206.5,257.5C 206.5,252.167 206.5,246.833 206.5,241.5 Z"/></g>
<g><path style="opacity:1" fill="#191919" d="M 284.5,241.5 C 285.833,241.5 287.167,241.5 288.5,241.5C 288.5,246.833 288.5,252.167 288.5,257.5C 287.167,257.5 285.833,257.5 284.5,257.5C 284.5,252.167 284.5,246.833 284.5,241.5 Z"/></g>
<g><path style="opacity:1" fill="#121212" d="M 184.5,242.5 C 186.833,242.5 189.167,242.5 191.5,242.5C 192.833,247.5 194.167,252.5 195.5,257.5C 192.685,257.108 190.185,256.108 188,254.5C 185.815,256.108 183.315,257.108 180.5,257.5C 181.833,252.5 183.167,247.5 184.5,242.5 Z"/></g>
<g><path style="opacity:1" fill="#111111" d="M 244.5,242.5 C 248.257,242.071 251.757,242.737 255,244.5C 255.92,247.308 255.087,249.475 252.5,251C 253.956,252.745 255.289,254.578 256.5,256.5C 255.277,257.614 253.944,257.781 252.5,257C 249.577,251.161 248.243,251.327 248.5,257.5C 247.167,257.5 245.833,257.5 244.5,257.5C 244.5,252.5 244.5,247.5 244.5,242.5 Z"/></g>
<g><path style="opacity:1" fill="#101010" d="M 198.5,243.5 C 200.5,244.167 202.5,244.833 204.5,245.5C 204.5,246.5 204.5,247.5 204.5,248.5C 203.5,248.5 202.5,248.5 201.5,248.5C 201.5,250.5 201.5,252.5 201.5,254.5C 202.5,254.5 203.5,254.5 204.5,254.5C 204.5,255.5 204.5,256.5 204.5,257.5C 201.956,257.896 199.789,257.229 198,255.5C 197.73,252.776 197.23,250.109 196.5,247.5C 197.63,246.378 198.297,245.044 198.5,243.5 Z"/></g>
<g><path style="opacity:1" fill="#0a0a0a" d="M 293.5,243.5 C 295.5,244.167 297.5,244.833 299.5,245.5C 299.5,246.5 299.5,247.5 299.5,248.5C 298.5,248.5 297.5,248.5 296.5,248.5C 296.5,250.5 296.5,252.5 296.5,254.5C 297.5,254.5 298.5,254.5 299.5,254.5C 299.5,255.5 299.5,256.5 299.5,257.5C 296.921,257.917 294.754,257.25 293,255.5C 292.73,252.776 292.23,250.109 291.5,247.5C 292.63,246.378 293.297,245.044 293.5,243.5 Z"/></g>
<g><path style="opacity:1" fill="#dcdcdc" d="M 248.5,245.5 C 249.5,245.5 250.5,245.5 251.5,245.5C 251.5,246.5 251.5,247.5 251.5,248.5C 250.5,248.5 249.5,248.5 248.5,248.5C 248.5,247.5 248.5,246.5 248.5,245.5 Z"/></g>
<g><path style="opacity:1" fill="#121212" d="M 215.5,245.5 C 218.685,245.02 221.519,245.686 224,247.5C 224.498,250.817 224.665,254.15 224.5,257.5C 221.004,257.23 217.504,256.896 214,256.5C 213.333,254.833 213.333,253.167 214,251.5C 216.147,250.887 218.314,250.221 220.5,249.5C 218.922,248.702 217.256,248.202 215.5,248C 214.402,247.23 214.402,246.397 215.5,245.5 Z"/></g>
<g><path style="opacity:1" fill="#151515" d="M 228.5,245.5 C 230.792,245.244 232.959,245.577 235,246.5C 235.167,246.833 235.333,247.167 235.5,247.5C 234.271,248.281 232.938,248.781 231.5,249C 233.846,250.013 235.513,251.679 236.5,254C 236.241,255.261 235.574,256.261 234.5,257C 232.19,257.497 229.857,257.663 227.5,257.5C 227.5,256.5 227.5,255.5 227.5,254.5C 233.925,254.783 234.091,253.783 228,251.5C 227.322,249.402 227.489,247.402 228.5,245.5 Z"/></g>
<g><path style="opacity:1" fill="#171717" d="M 260.5,245.5 C 266.188,244.531 269.188,246.864 269.5,252.5C 267.076,252.192 264.743,252.526 262.5,253.5C 264.396,254.466 266.396,254.799 268.5,254.5C 268.5,255.5 268.5,256.5 268.5,257.5C 258.232,258.274 255.565,254.274 260.5,245.5 Z"/></g>
<g><path style="opacity:1" fill="#1a1a1a" d="M 273.5,245.5 C 276.602,245.154 279.435,245.821 282,247.5C 282.498,250.817 282.665,254.15 282.5,257.5C 279.004,257.23 275.504,256.896 272,256.5C 270.595,251.731 272.428,249.398 277.5,249.5C 275.833,248.833 274.167,248.167 272.5,247.5C 272.863,246.817 273.196,246.15 273.5,245.5 Z"/></g>
<g><path style="opacity:1" fill="#141414" d="M 300.5,245.5 C 302.144,245.286 303.644,245.62 305,246.5C 305.36,248.608 306.027,250.608 307,252.5C 307.36,250.392 308.027,248.392 309,246.5C 310.011,245.663 311.178,245.33 312.5,245.5C 311.226,251.499 308.893,256.999 305.5,262C 304.207,262.49 302.873,262.657 301.5,262.5C 302.179,260.332 303.179,258.332 304.5,256.5C 303.161,252.815 301.828,249.149 300.5,245.5 Z"/></g>
<g><path style="opacity:1" fill="#bababa" d="M 262.5,248.5 C 263.675,248.281 264.675,248.614 265.5,249.5C 263.948,250.798 262.948,250.465 262.5,248.5 Z"/></g>
<g><path style="opacity:1" fill="#bdbdbd" d="M 187.5,245.5 C 189.074,247.102 189.741,249.102 189.5,251.5C 188.5,251.5 187.5,251.5 186.5,251.5C 186.517,249.435 186.85,247.435 187.5,245.5 Z"/></g>
<g><path style="opacity:1" fill="#e1e1e1" d="M 217.5,252.5 C 218.675,252.281 219.675,252.614 220.5,253.5C 218.948,254.798 217.948,254.465 217.5,252.5 Z"/></g>
<g><path style="opacity:1" fill="#fafafa" d="M 275.5,252.5 C 277.337,252.639 277.67,253.306 276.5,254.5C 275.702,254.043 275.369,253.376 275.5,252.5 Z"/></g>
<g><path style="opacity:1" fill="#b0bcff" d="M 327.5,241.5 C 329.602,241.57 331.602,242.07 333.5,243C 323.879,242.619 320.045,247.119 322,256.5C 327,261.833 332,261.833 337,256.5C 337.09,258.768 335.923,260.268 333.5,261C 320.953,261.936 316.953,256.436 321.5,244.5C 323.444,243.199 325.444,242.199 327.5,241.5 Z"/></g>
</svg>
